<svg width="12" height="8" viewBox="0 0 12 8" fill="none" xmlns="http://www.w3.org/2000/svg">
<path d="M8.97238 0.273773L11.7507 3.34003C11.9169 3.5094 12 3.7401 12 3.99416C12 4.24822 11.9169 4.476 11.7507 4.64829L8.97238 7.72623C8.64275 8.09126 8.10537 8.09126 7.77574 7.72623C7.44611 7.3612 7.44611 6.77131 7.77574 6.40628L9.11088 4.93448H0.850393C0.379491 4.93448 0 4.51688 0 4C0 3.48312 0.379491 3.06552 0.847623 3.06552H9.10811L7.77297 1.59372C7.44334 1.22869 7.44334 0.638803 7.77297 0.273773C8.10537 -0.0912575 8.63998 -0.0912575 8.97238 0.273773Z" fill="#FE6766"/>
</svg>
