<svg width="126" height="72" viewBox="0 0 126 72" fill="none" xmlns="http://www.w3.org/2000/svg">
<path d="M121.275 62.1234H34.9877C32.4015 62.1234 30.2878 60.0346 30.2878 57.4236L41.3038 38.5746C41.3038 35.9884 43.3926 33.8748 46.0036 33.8748H121.3C123.886 33.8748 126 35.9636 126 38.5746V57.4236C125.975 60.0346 123.886 62.1234 121.275 62.1234Z" fill="white"/>
<path d="M47.1723 29.6971L36.6785 19.2034L27.4281 28.1554C27.4281 28.1554 30.5115 24.1518 30.5115 19.5266C30.5115 14.9014 28.0497 10.8978 25.8863 8.43604L4.62522 29.6971C4.62522 29.6971 0 34.024 0 39.8676C0 46.9547 4.62522 51.2815 4.62522 51.2815L23.9964 70.6527C25.0409 71.6971 26.7567 71.6971 27.8011 70.6527L47.1723 51.2815C47.1723 51.2815 51.7975 46.0346 51.7975 39.8676C51.7975 33.7007 47.1723 29.6971 47.1723 29.6971ZM26.4334 55.0364L26.0355 55.3845L25.6377 55.0364C16.8348 47.8748 14.4476 45.3383 14.4476 41.2353C14.4476 37.8534 17.2078 35.143 20.54 35.143C23.3499 35.143 24.9414 36.7344 26.0107 37.9529C27.0799 36.7344 28.6714 35.143 31.4813 35.143C34.8632 35.143 37.5737 37.9032 37.5737 41.2353C37.6234 45.3632 35.2362 47.8748 26.4334 55.0364Z" fill="#FE6766"/>
<path d="M30.0143 9.25666C28.4477 7.69005 28.4477 6.17318 29.9397 4.65631L32.0534 2.54263L31.5809 2.07016C31.1333 1.62256 31.1333 1.19982 31.556 0.777087C31.9788 0.354352 32.4264 0.354352 32.874 0.801954L33.3464 1.27442L34.1919 0.428952C34.7638 -0.142984 35.3358 -0.142984 35.9077 0.428952C36.4797 1.00089 36.4548 1.57282 35.8828 2.14476L35.0374 2.99023L36.1066 4.0595C36.5294 4.48224 36.5543 4.92984 36.1066 5.35258C35.6839 5.77531 35.2612 5.77531 34.8136 5.32771L33.7443 4.25844L31.6804 6.32238C31.3571 6.64565 31.2079 6.94405 31.183 7.24245C31.183 7.54085 31.3322 7.86412 31.6555 8.18739C31.7798 8.31172 31.8793 8.38632 32.0036 8.46092C32.128 8.53552 32.2274 8.61012 32.3269 8.68472C32.4512 8.78419 32.501 8.90853 32.4761 9.05773C32.4761 9.20693 32.3518 9.38099 32.1031 9.62966C31.9042 9.8286 31.7301 9.95293 31.5312 10.0275C31.3322 10.1021 31.1333 10.1021 30.9344 10.0027C30.81 9.95293 30.636 9.8286 30.437 9.70426C30.2878 9.50533 30.1386 9.38099 30.0143 9.25666Z" fill="#FE6766"/>
<path d="M32.8987 12.0914C32.3267 11.5195 32.3267 10.9475 32.8987 10.3756L39.3392 3.95996C39.9111 3.38802 40.483 3.38802 41.055 3.95996C41.6269 4.53189 41.6021 5.10383 41.0301 5.67577L38.618 8.08784C39.0905 7.98838 39.563 8.03811 40.0106 8.18731C40.4582 8.33651 40.8809 8.61005 41.2539 8.98305C42.547 10.2761 42.4227 11.7184 40.8809 13.2601L38.3196 15.8214C37.7477 16.3933 37.1758 16.3933 36.6038 15.8214C36.3303 15.5479 36.206 15.2743 36.206 14.9759C36.206 14.6775 36.3552 14.404 36.6287 14.1056L39.1154 11.6189C39.4884 11.2459 39.7122 10.8978 39.737 10.5745C39.7619 10.2513 39.6376 9.97772 39.364 9.67932C39.0159 9.33118 38.5932 9.13225 38.1704 9.15712C37.7228 9.15712 37.325 9.35605 36.952 9.72905L34.6394 12.0417C34.0426 12.6385 33.4706 12.6633 32.8987 12.0914Z" fill="#FE6766"/>
<path d="M41.6022 20.8446C40.9557 20.1981 40.5081 19.5018 40.2843 18.8055C40.0605 18.1093 40.0356 17.413 40.2097 16.7167C40.3838 16.0205 40.7816 15.3988 41.3536 14.802C41.9255 14.23 42.5472 13.857 43.2186 13.6581C43.89 13.4592 44.5614 13.4592 45.2328 13.6581C45.9042 13.8322 46.5259 14.2052 47.0729 14.7523C47.8687 15.548 48.2665 16.4432 48.2168 17.4379C48.1919 18.4077 47.7443 19.3526 46.874 20.1981C46.6005 20.4716 46.2772 20.4467 45.9042 20.0986L42.5969 16.7913C42.2239 17.2887 42.0747 17.7611 42.1244 18.2336C42.1742 18.6812 42.4477 19.1537 42.8953 19.6013C43.0694 19.7753 43.2932 19.9743 43.5667 20.1483C43.8402 20.3473 44.1386 20.4716 44.437 20.5959C44.7603 20.7203 44.9592 20.8695 45.0587 21.0933C45.1333 21.3171 45.1333 21.516 45.0587 21.715C44.9592 21.9139 44.81 22.088 44.5862 22.1874C44.3624 22.2869 44.1138 22.3118 43.8154 22.2123C43.4175 22.088 43.0196 21.9139 42.6218 21.6652C42.2488 21.4165 41.9006 21.143 41.6022 20.8446ZM46.0285 15.9707C45.6804 15.6226 45.2576 15.4237 44.8349 15.4237C44.3873 15.4237 43.9646 15.5977 43.517 15.921L45.9539 18.3579C46.6999 17.4876 46.7497 16.6919 46.0285 15.9707Z" fill="#FE6766"/>
<path d="M57.0693 56.8514C55.4281 56.8514 54.6323 56.0557 54.6323 54.4394V41.3346C54.6323 39.7182 55.4529 38.9225 57.0693 38.9225H62.0675C65.1758 38.9225 67.5879 39.6934 69.3037 41.26C71.0195 42.8266 71.865 45.0148 71.865 47.8745C71.865 50.7342 71.0195 52.9474 69.3037 54.514C67.5879 56.0806 65.1758 56.8763 62.0675 56.8763H57.0693V56.8514ZM59.3073 53.0717H61.7442C63.5346 53.0717 64.8526 52.649 65.698 51.7786C66.5435 50.9331 66.9911 49.6152 66.9911 47.8745C66.9911 46.1339 66.5684 44.8408 65.698 43.9704C64.8277 43.125 63.5098 42.7022 61.7442 42.7022H59.3073V53.0717Z" fill="#414042"/>
<path d="M75.0231 57.0752C74.2273 57.0752 73.6305 56.8017 73.2575 56.2546C72.8845 55.7076 72.8845 55.0362 73.2575 54.2156L79.5986 40.5637C79.897 39.8923 80.27 39.4198 80.7176 39.1214C81.1652 38.823 81.6874 38.6738 82.2593 38.6738C82.8312 38.6738 83.3534 38.823 83.7762 39.1214C84.1989 39.4198 84.5968 39.9172 84.8952 40.5637L91.2362 54.2156C91.6341 55.0362 91.6341 55.7324 91.286 56.2546C90.9378 56.8017 90.3659 57.0504 89.595 57.0504C88.9236 57.0504 88.4014 56.9012 88.0284 56.6028C87.6554 56.3044 87.3321 55.807 87.0586 55.1356L86.238 53.196H78.2309L77.4103 55.1356C77.1119 55.807 76.7886 56.3044 76.4653 56.6028C76.1669 56.926 75.6945 57.0752 75.0231 57.0752ZM82.2344 43.7964L79.7975 49.6152H84.746L82.309 43.7964H82.2344Z" fill="#414042"/>
<path d="M98.1493 57.0753C97.4033 57.0753 96.8313 56.8764 96.4086 56.4536C96.0107 56.0558 95.7869 55.459 95.7869 54.6881V42.7023H91.7834C90.4903 42.7023 89.8438 42.0558 89.8438 40.7875C89.8438 39.5193 90.4903 38.8728 91.7834 38.8728H104.465C105.758 38.8728 106.405 39.5193 106.405 40.7875C106.405 42.0558 105.758 42.7023 104.465 42.7023H100.462V54.6881C100.462 55.459 100.263 56.0309 99.8651 56.4536C99.4921 56.8764 98.9201 57.0753 98.1493 57.0753Z" fill="#414042"/>
<path d="M110.434 56.8514C108.792 56.8514 107.997 56.0557 107.997 54.4394V41.3346C107.997 39.7182 108.817 38.9225 110.434 38.9225H119.062C120.281 38.9225 120.902 39.5193 120.902 40.7129C120.902 41.9314 120.281 42.553 119.062 42.553H112.473V45.9598H118.515C119.734 45.9598 120.355 46.5566 120.355 47.7751C120.355 48.9687 119.734 49.5903 118.515 49.5903H112.473V53.2706H119.062C120.281 53.2706 120.902 53.8674 120.902 55.0859C120.902 56.2795 120.281 56.9012 119.062 56.9012H110.434V56.8514Z" fill="#414042"/>
<path d="M56.1741 30.4183C55.5773 30.4183 55.1048 30.2442 54.7815 29.921C54.4583 29.5977 54.3091 29.1252 54.3091 28.5284V18.0844C54.3091 17.4876 54.4583 17.0151 54.7815 16.6918C55.1048 16.3686 55.5524 16.2194 56.1492 16.2194C56.746 16.2194 57.1936 16.3686 57.5169 16.6918C57.8402 17.0151 57.9894 17.4876 57.9894 18.0844V27.3348H62.913C63.4352 27.3348 63.8082 27.4591 64.0817 27.7327C64.3553 28.0062 64.5045 28.3792 64.5045 28.8517C64.5045 29.349 64.3553 29.722 64.0817 29.9956C63.8082 30.2691 63.4103 30.3934 62.913 30.3934H56.1741V30.4183Z" fill="white"/>
<path d="M72.1635 30.6421C70.7212 30.6421 69.4779 30.3437 68.3838 29.7221C67.2896 29.1004 66.469 28.2549 65.8474 27.1608C65.2506 26.0667 64.9521 24.7736 64.9521 23.3064C64.9521 21.8393 65.2506 20.5462 65.8474 19.4521C66.4442 18.358 67.2896 17.5125 68.3838 16.8908C69.4779 16.294 70.7461 15.9956 72.1635 15.9956C73.6058 15.9956 74.8491 16.294 75.9433 16.8908C77.0374 17.4876 77.858 18.3331 78.4797 19.4521C79.0765 20.5462 79.3749 21.8393 79.3749 23.3064C79.3749 24.7736 79.0765 26.0418 78.4797 27.1608C77.8829 28.2549 77.0374 29.1253 75.9433 29.7221C74.8491 30.3437 73.6058 30.6421 72.1635 30.6421ZM72.1635 27.5587C73.2079 27.5587 74.0285 27.1857 74.6253 26.4397C75.2221 25.6937 75.5205 24.6492 75.5205 23.3313C75.5205 22.0134 75.2221 20.969 74.6253 20.223C74.0285 19.477 73.2079 19.104 72.1386 19.104C71.0694 19.104 70.2488 19.477 69.652 20.223C69.0552 20.969 68.7568 21.9885 68.7568 23.3313C68.7568 24.6492 69.0552 25.6937 69.652 26.4397C70.2736 27.1857 71.0942 27.5587 72.1635 27.5587Z" fill="white"/>
<path d="M88.7495 30.6421C87.1829 30.6421 85.8152 30.3437 84.6962 29.7469C83.5772 29.1501 82.7069 28.2798 82.11 27.1857C81.5132 26.0915 81.2148 24.7984 81.2148 23.3064C81.2148 21.8393 81.5132 20.5462 82.11 19.4521C82.7069 18.358 83.5772 17.5125 84.6962 16.8908C85.8152 16.294 87.1829 15.9956 88.7495 15.9956C89.3711 15.9956 90.0177 16.0702 90.6642 16.2194C91.3356 16.3686 91.9076 16.5675 92.4298 16.8659C92.8028 17.0649 93.0763 17.3135 93.2255 17.6368C93.3747 17.9352 93.4244 18.2585 93.3747 18.5818C93.325 18.905 93.2255 19.2034 93.0266 19.4521C92.8276 19.7008 92.579 19.8748 92.2806 19.9743C91.9822 20.0738 91.6589 20.024 91.3108 19.85C90.515 19.4521 89.6944 19.2532 88.8738 19.2532C87.6305 19.2532 86.6855 19.6013 86.0639 20.3224C85.4422 21.0187 85.1189 22.0382 85.1189 23.3562C85.1189 24.6741 85.4422 25.6937 86.0639 26.4148C86.6855 27.1111 87.6305 27.4841 88.8738 27.4841C89.2219 27.4841 89.5949 27.4343 89.9928 27.3597C90.3907 27.2603 90.7886 27.1359 91.1864 26.937C91.5843 26.7629 91.9573 26.7132 92.2557 26.7878C92.579 26.8624 92.8276 27.0365 93.0266 27.2603C93.2255 27.5089 93.3498 27.7825 93.3996 28.1057C93.4493 28.429 93.3996 28.7274 93.2752 29.0507C93.1509 29.3491 92.9022 29.5977 92.5292 29.7967C92.0568 30.0702 91.4848 30.294 90.7886 30.4681C90.1172 30.5675 89.4457 30.6421 88.7495 30.6421Z" fill="white"/>
<path d="M95.8615 30.6172C95.2398 30.6172 94.7673 30.3934 94.4689 29.9707C94.1705 29.548 94.1705 29.0009 94.4689 28.3543L99.492 17.5622C99.7407 17.04 100.039 16.667 100.387 16.4183C100.735 16.1696 101.158 16.0453 101.606 16.0453C102.053 16.0453 102.476 16.1696 102.824 16.4183C103.172 16.667 103.471 17.04 103.719 17.5622L108.742 28.3543C109.041 29.0009 109.066 29.548 108.792 29.9707C108.519 30.3934 108.071 30.6172 107.474 30.6172C106.927 30.6172 106.529 30.4929 106.231 30.2442C105.933 29.9956 105.684 29.6226 105.46 29.0755L104.814 27.5337H98.4725L97.8259 29.0755C97.5773 29.6226 97.3286 29.9956 97.0799 30.2442C96.7815 30.4929 96.3837 30.6172 95.8615 30.6172ZM101.556 20.0986L99.6163 24.7238H103.52L101.606 20.0986H101.556Z" fill="white"/>
<path d="M112.448 30.4183C111.851 30.4183 111.378 30.2442 111.055 29.921C110.732 29.5977 110.583 29.1252 110.583 28.5284V18.0844C110.583 17.4876 110.732 17.0151 111.055 16.6918C111.378 16.3686 111.826 16.2194 112.423 16.2194C113.019 16.2194 113.467 16.3686 113.79 16.6918C114.114 17.0151 114.263 17.4876 114.263 18.0844V27.3348H119.186C119.709 27.3348 120.082 27.4591 120.355 27.7327C120.629 28.0062 120.778 28.3792 120.778 28.8517C120.778 29.349 120.629 29.722 120.355 29.9956C120.082 30.2691 119.684 30.3934 119.186 30.3934H112.448V30.4183Z" fill="white"/>
</svg>
