<svg width="249" height="141" viewBox="0 0 249 141" fill="none" xmlns="http://www.w3.org/2000/svg">
<path d="M239.237 122.631H68.992C63.8813 122.631 59.7341 118.484 59.7341 113.373L81.4756 76.2156C81.4756 71.1048 85.6228 66.9576 90.7335 66.9576H239.237C244.348 66.9576 248.495 71.1048 248.495 76.2156V113.373C248.495 118.484 244.348 122.631 239.237 122.631Z" fill="#414042"/>
<path d="M93.04 58.663L72.3458 37.9689L54.0813 55.605C54.0813 55.605 60.1555 47.6876 60.1555 38.5972C60.1555 29.5069 55.2961 21.5895 51.0233 16.6882L9.13224 58.663C9.13224 58.663 0 67.1669 0 78.7288C0 92.7204 9.13224 101.224 9.13224 101.224L47.3368 139.429C49.4314 141.523 52.7827 141.523 54.8353 139.429L93.04 101.224C93.04 101.224 102.172 90.8772 102.172 78.7288C102.172 66.5804 93.04 58.663 93.04 58.663ZM52.1124 108.681L51.3584 109.351L50.6044 108.681C33.2196 94.5217 28.5278 89.5786 28.5278 81.4517C28.5278 74.7492 33.9736 69.429 40.5505 69.429C46.0801 69.429 49.2638 72.5708 51.3584 74.9586C53.4529 72.5708 56.5948 69.429 62.1663 69.429C68.8688 69.429 74.189 74.8748 74.189 81.4517C74.189 89.5786 69.4972 94.5217 52.1124 108.681Z" fill="#FE6766"/>
<path d="M59.2375 18.3222C56.1795 15.2641 56.1376 12.248 59.1118 9.23181L63.3009 5.04271L62.3793 4.1211C61.4996 3.24139 61.4996 2.40357 62.2955 1.56575C63.1334 0.72793 64.0131 0.727931 64.8928 1.60764L65.8144 2.52924L67.49 0.853603C68.6211 -0.277454 69.7521 -0.277454 70.8832 0.811713C72.0143 1.94277 71.9724 3.03194 70.8413 4.20488L69.1657 5.88053L71.2602 7.97508C72.098 8.8129 72.1399 9.69261 71.3021 10.5304C70.4643 11.3682 69.6265 11.3264 68.7468 10.4885L66.6522 8.39399L62.5888 12.4574C61.9604 13.0858 61.6253 13.6723 61.6253 14.3006C61.5834 14.8871 61.9185 15.5155 62.5469 16.1438C62.7563 16.3533 63.0077 16.5627 63.2171 16.6884C63.4685 16.856 63.6779 16.9816 63.8455 17.1492C64.055 17.3587 64.1806 17.5681 64.1387 17.8614C64.1387 18.1546 63.8874 18.5316 63.4266 18.9924C63.0496 19.3694 62.6726 19.6208 62.2955 19.7465C61.9185 19.8721 61.5415 19.8721 61.1226 19.7046C60.8712 19.5789 60.5361 19.3694 60.1591 19.1181C59.7821 18.8248 59.4469 18.5735 59.2375 18.3222Z" fill="#FE6766"/>
<path d="M64.9344 23.9357C63.8034 22.8046 63.8034 21.6736 64.9763 20.5425L77.6274 7.89145C78.7585 6.76039 79.8895 6.76039 81.0206 7.84955C82.1516 8.98061 82.1098 10.0698 80.9787 11.2427L76.245 15.9764C77.2085 15.8088 78.1301 15.8507 79.0098 16.1859C79.8895 16.521 80.7274 17.0237 81.4814 17.7777C84.0367 20.3331 83.7854 23.1398 80.7273 26.1978L75.6585 31.2666C74.5275 32.3977 73.3964 32.3977 72.2654 31.3085C71.7208 30.7639 71.4694 30.2194 71.4694 29.6329C71.4694 29.0464 71.7627 28.4599 72.3073 27.9154L77.2085 23.0141C77.9625 22.2601 78.3815 21.5898 78.4233 20.9614C78.4652 20.3331 78.2139 19.7466 77.6693 19.202C76.9572 18.4899 76.1612 18.1547 75.2815 18.1547C74.4018 18.1966 73.6059 18.5737 72.8518 19.2858L68.2857 23.8938C67.1547 25.0249 66.0236 25.0668 64.9344 23.9357Z" fill="#FE6766"/>
<path d="M82.0681 41.1947C80.7694 39.8961 79.8897 38.5556 79.4289 37.1732C78.9681 35.7908 78.9262 34.4084 79.2614 33.0679C79.5965 31.7273 80.3924 30.4706 81.5235 29.2977C82.6545 28.1666 83.8694 27.4126 85.2099 27.0355C86.5504 26.6585 87.8909 26.6585 89.1895 26.9937C90.4882 27.3288 91.703 28.0828 92.8341 29.172C94.4259 30.7638 95.18 32.5233 95.0962 34.4503C95.0124 36.3772 94.1327 38.2204 92.457 39.8961C91.9125 40.4407 91.2841 40.3988 90.5719 39.6866L84.037 33.1516C83.2829 34.1151 82.9897 35.0786 83.1153 35.9583C83.241 36.8799 83.7437 37.7596 84.6653 38.6813C85.0004 39.0164 85.4612 39.3934 86.0058 39.7704C86.5504 40.1474 87.1369 40.4407 87.7234 40.6501C88.3517 40.8596 88.7706 41.1947 88.9382 41.6136C89.1058 42.0325 89.1058 42.4514 88.8963 42.8704C88.6869 43.2893 88.3936 43.5825 87.9747 43.792C87.5558 44.0014 87.0531 44.0014 86.4247 43.8338C85.6288 43.5825 84.8329 43.2474 84.0788 42.7447C83.3248 42.3258 82.6545 41.7812 82.0681 41.1947ZM90.7814 31.5598C90.0693 30.8476 89.2733 30.4706 88.3936 30.4706C87.5139 30.4706 86.6342 30.8057 85.7964 31.476L90.6138 36.2935C92.1638 34.5759 92.2057 32.9841 90.7814 31.5598Z" fill="#FE6766"/>
<path d="M112.603 112.242C109.377 112.242 107.785 110.65 107.785 107.466V81.6195C107.785 78.4357 109.377 76.8439 112.603 76.8439H122.447C128.563 76.8439 133.339 78.3938 136.69 81.4519C140.083 84.5518 141.759 88.8666 141.759 94.5219C141.759 100.135 140.083 104.492 136.69 107.592C133.297 110.692 128.563 112.242 122.447 112.242H112.603ZM117.001 104.743H121.819C125.338 104.743 127.935 103.905 129.611 102.188C131.286 100.512 132.166 97.9151 132.166 94.48C132.166 91.0449 131.328 88.4896 129.611 86.8139C127.893 85.1383 125.296 84.3005 121.819 84.3005H117.001V104.743Z" fill="white"/>
<path d="M148.002 112.703C146.41 112.703 145.279 112.158 144.525 111.111C143.771 110.022 143.771 108.681 144.525 107.089L157.009 80.1951C157.595 78.8965 158.349 77.933 159.229 77.3465C160.109 76.7601 161.114 76.4249 162.287 76.4249C163.418 76.4249 164.423 76.7182 165.303 77.3465C166.183 77.933 166.895 78.8965 167.523 80.1951L180.007 107.089C180.761 108.723 180.803 110.063 180.091 111.111C179.379 112.158 178.289 112.703 176.781 112.703C175.441 112.703 174.394 112.409 173.681 111.781C172.969 111.194 172.299 110.189 171.754 108.849L170.163 105.036H154.328L152.736 108.849C152.149 110.189 151.521 111.153 150.893 111.781C150.264 112.409 149.301 112.703 148.002 112.703ZM162.203 86.4788L157.386 97.9569H167.146L162.329 86.4788H162.203Z" fill="white"/>
<path d="M193.622 112.703C192.155 112.703 191.024 112.284 190.228 111.488C189.432 110.692 189.014 109.519 189.014 108.011V84.3425H181.138C178.583 84.3425 177.326 83.0858 177.326 80.5723C177.326 78.0589 178.583 76.8021 181.138 76.8021H206.147C208.702 76.8021 209.959 78.0589 209.959 80.5723C209.959 83.0858 208.702 84.3425 206.147 84.3425H198.271V108.011C198.271 109.519 197.894 110.692 197.098 111.488C196.303 112.284 195.13 112.703 193.622 112.703Z" fill="white"/>
<path d="M217.835 112.242C214.609 112.242 213.018 110.65 213.018 107.466V81.6195C213.018 78.4357 214.609 76.8439 217.835 76.8439H234.843C237.272 76.8439 238.445 78.0168 238.445 80.3627C238.445 82.7924 237.231 83.9653 234.843 83.9653H221.857V90.7098H233.754C236.183 90.7098 237.356 91.8827 237.356 94.2705C237.356 96.6583 236.141 97.8313 233.754 97.8313H221.857V105.12H234.843C237.272 105.12 238.445 106.293 238.445 108.681C238.445 111.069 237.231 112.242 234.843 112.242H217.835Z" fill="white"/>
<path d="M110.844 60.1291C109.671 60.1291 108.75 59.794 108.079 59.1656C107.451 58.5373 107.116 57.6157 107.116 56.4427V35.7485C107.116 34.5756 107.451 33.654 108.079 33.0256C108.708 32.3973 109.629 32.0621 110.802 32.0621C111.975 32.0621 112.855 32.3973 113.525 33.0256C114.154 33.654 114.489 34.5756 114.489 35.7485V54.0549H124.207C125.213 54.0549 126.009 54.3063 126.553 54.8508C127.098 55.3954 127.349 56.1076 127.349 57.0711C127.349 58.0346 127.098 58.7886 126.553 59.3332C126.009 59.8778 125.255 60.1291 124.207 60.1291H110.844Z" fill="#414042"/>
<path d="M142.344 60.548C139.496 60.548 137.024 59.9615 134.888 58.7467C132.751 57.5318 131.076 55.8562 129.903 53.6779C128.73 51.4995 128.101 48.9861 128.101 46.0956C128.101 43.1632 128.688 40.6498 129.861 38.4714C131.034 36.2931 132.709 34.6175 134.846 33.4445C136.982 32.2716 139.496 31.6432 142.302 31.6432C145.151 31.6432 147.623 32.2297 149.759 33.4445C151.895 34.6175 153.571 36.335 154.744 38.4714C155.917 40.6498 156.545 43.1632 156.545 46.0956C156.545 48.9861 155.959 51.4995 154.744 53.6779C153.571 55.8562 151.895 57.5318 149.759 58.7467C147.664 59.9615 145.193 60.548 142.344 60.548ZM142.344 54.4319C144.397 54.4319 146.031 53.6779 147.204 52.2117C148.377 50.7455 148.963 48.6928 148.963 46.0537C148.963 43.4146 148.377 41.4038 147.204 39.9376C146.031 38.4714 144.397 37.7593 142.302 37.7593C140.208 37.7593 138.574 38.4714 137.401 39.9376C136.228 41.4038 135.642 43.4565 135.642 46.0537C135.642 48.6928 136.228 50.7455 137.401 52.2117C138.616 53.6779 140.25 54.4319 142.344 54.4319Z" fill="#414042"/>
<path d="M175.061 60.5481C171.961 60.5481 169.28 59.9617 167.06 58.7468C164.839 57.5739 163.122 55.8563 161.949 53.678C160.776 51.4997 160.189 48.9443 160.189 46.0538C160.189 43.1215 160.776 40.608 161.949 38.4297C163.122 36.2513 164.839 34.5757 167.06 33.4028C169.28 32.2298 171.961 31.6014 175.061 31.6014C176.276 31.6014 177.532 31.7271 178.873 32.0204C180.213 32.3136 181.344 32.7325 182.35 33.2771C183.104 33.6541 183.607 34.1987 183.9 34.7852C184.193 35.4135 184.319 36 184.235 36.6703C184.151 37.2986 183.942 37.8851 183.523 38.3878C183.146 38.8905 182.643 39.2256 182.057 39.3932C181.47 39.5607 180.842 39.477 180.13 39.1418C178.58 38.3878 176.946 37.9689 175.312 37.9689C172.841 37.9689 170.997 38.681 169.741 40.0634C168.484 41.4458 167.856 43.4566 167.856 46.0538C167.856 48.693 168.484 50.7037 169.741 52.0861C170.997 53.4686 172.841 54.1807 175.312 54.1807C175.982 54.1807 176.736 54.0969 177.532 53.9294C178.328 53.7618 179.124 53.4686 179.878 53.1334C180.674 52.7983 181.386 52.7145 182.015 52.8402C182.643 53.0077 183.146 53.301 183.565 53.8037C183.984 54.2645 184.193 54.851 184.319 55.4374C184.402 56.0658 184.319 56.6942 184.067 57.2806C183.816 57.909 183.313 58.3698 182.601 58.7468C181.68 59.2914 180.548 59.7522 179.166 60.0454C177.784 60.3806 176.443 60.5481 175.061 60.5481Z" fill="#414042"/>
<path d="M189.095 60.4647C187.839 60.4647 186.917 60.0457 186.372 59.2079C185.786 58.3701 185.786 57.2809 186.372 56.0242L196.259 34.7017C196.72 33.6544 197.306 32.9004 198.018 32.4396C198.688 31.9788 199.526 31.7274 200.448 31.7274C201.328 31.7274 202.124 31.9788 202.836 32.4396C203.506 32.9004 204.092 33.6544 204.595 34.7017L214.481 56.0242C215.11 57.3228 215.11 58.3701 214.565 59.2079C214.021 60.0457 213.141 60.4647 211.926 60.4647C210.879 60.4647 210.041 60.2133 209.496 59.7525C208.91 59.2917 208.407 58.4958 207.946 57.4485L206.69 54.4323H194.164L192.907 57.4485C192.447 58.4958 191.944 59.2917 191.441 59.7525C190.897 60.2133 190.143 60.4647 189.095 60.4647ZM200.364 39.7286L196.552 48.819H204.26L200.448 39.7286H200.364Z" fill="#414042"/>
<path d="M221.813 60.1291C220.64 60.1291 219.718 59.794 219.048 59.1656C218.42 58.5373 218.084 57.6157 218.084 56.4427V35.7485C218.084 34.5756 218.42 33.654 219.048 33.0256C219.676 32.3973 220.598 32.0621 221.771 32.0621C222.944 32.0621 223.824 32.3973 224.494 33.0256C225.122 33.654 225.457 34.5756 225.457 35.7485V54.0549H235.176C236.181 54.0549 236.977 54.3063 237.522 54.8508C238.066 55.3954 238.318 56.1076 238.318 57.0711C238.318 58.0346 238.066 58.7886 237.522 59.3332C236.977 59.8778 236.223 60.1291 235.176 60.1291H221.813Z" fill="#414042"/>
</svg>
